<?xml version="1.0" encoding="UTF-8" standalone="no"?>
<!-- Created with Inkscape (http://www.inkscape.org/) -->

<svg
   width="255.99998"
   height="87"
   viewBox="0 0 67.733329 23.01875"
   version="1.1"
   id="svg1"
   xmlns="http://www.w3.org/2000/svg"
   xmlns:svg="http://www.w3.org/2000/svg">
  <defs
     id="defs1" />
  <g
     id="layer1">
    <path
       id="path127"
       style="font-size:192px;font-family:Deltha;-inkscape-font-specification:'Deltha, Normal';fill:#ffffff;stroke-width:0.576361"
       d="m 527.09766,434.43555 0.10156,66.13281 -0.10156,17.76367 h 54.78906 c 5.10151,0 9.96643,-1.04071 14.5918,-3.12109 4.62537,-2.0804 8.73868,-5.08123 12.34375,-9.00196 3.67308,-4.00076 6.49615,-8.52154 8.46875,-13.5625 1.97258,-5.12096 2.95898,-10.56118 2.95898,-16.32226 0,-5.68107 -0.9864,-11.04304 -2.95898,-16.08399 -1.9726,-5.12096 -4.79567,-9.68089 -8.46875,-13.68164 -3.60507,-3.92074 -7.71838,-6.92156 -12.34375,-9.00195 -4.62537,-2.08039 -9.49029,-3.12109 -14.5918,-3.12109 z m 10.40625,12.12304 h 44.38281 c 3.87715,0 7.48341,0.8001 10.8164,2.40039 3.40101,1.5203 6.35826,3.64082 8.875,6.36133 2.58478,2.72051 4.59308,5.88174 6.02149,9.48242 1.49645,3.60068 2.24414,7.44072 2.24414,11.52149 0,4.08076 -0.74769,7.96188 -2.24414,11.64258 -1.42841,3.60068 -3.43671,6.75995 -6.02149,9.48047 -2.51674,2.72052 -5.474,4.88212 -8.875,6.48242 -3.33299,1.52029 -6.93925,2.27929 -10.8164,2.27929 h -44.38281 v -5.51953 z"
       transform="matrix(0.06952589,0,0,0.07598636,-10.133613,-19.852504)" />
    <path
       d="m 37.402125,18.798594 q 0.39263,0 0.73172,0.148005 0.348013,0.138755 0.606783,0.388505 0.258782,0.249757 0.401557,0.592012 0.151686,0.333005 0.151686,0.712263 v 0.05549 q 0,0.379257 -0.151686,0.712263 -0.142775,0.333005 -0.401557,0.582762 -0.25877,0.24975 -0.606783,0.397755 -0.33909,0.148005 -0.73172,0.148005 h -4.247516 l 0.928033,-0.943512 h 3.319483 q 0.205245,0 0.383708,-0.06476 0.178467,-0.074 0.312312,-0.194248 0.133853,-0.1295 0.205238,-0.286753 0.08032,-0.166502 0.08032,-0.351512 v -0.05549 q 0,-0.18501 -0.08032,-0.351513 -0.07138,-0.166502 -0.205238,-0.286752 -0.133845,-0.129498 -0.312312,-0.194248 -0.178463,-0.07401 -0.383708,-0.07401 h -2.793008 q -0.392628,0 -0.740635,-0.138748 -0.339083,-0.148005 -0.597865,-0.397755 -0.258775,-0.249757 -0.410475,-0.582763 -0.142769,-0.333005 -0.142769,-0.712262 0,-0.379258 0.142769,-0.712263 0.1517,-0.342252 0.410475,-0.592002 0.258782,-0.249758 0.597865,-0.388505 0.348007,-0.148006 0.740635,-0.148006 h 4.122586 l -0.936948,0.943513 h -3.185638 q -0.20523,0 -0.383705,0.07401 -0.17846,0.06475 -0.312315,0.185 -0.133845,0.12025 -0.21416,0.286752 -0.07138,0.166503 -0.07138,0.351503 0,0.18501 0.07138,0.351512 0.08032,0.157243 0.21416,0.286753 0.133855,0.12025 0.312315,0.194248 0.178475,0.06475 0.383705,0.06475 z"
       id="path128"
       style="font-size:192px;font-family:Deltha;-inkscape-font-specification:'Deltha, Normal';fill:#ffffff;stroke-width:0.047319"
       aria-label="S" />
    <path
       d="M 4.3313331,22.783592 H 0.09605406 L 14.371889,-0.15738049 23.244077,12.271647 30.947925,-0.15738049 47.304887,22.783592 H 42.960064 L 31.166981,6.2648205 20.90737,22.783592 H 16.672084 L 21.199463,15.53067 14.590944,6.2648205 Z"
       id="path129"
       style="font-size:178.614px;font-family:Deltha;-inkscape-font-specification:'Deltha, Normal';fill:#ffffff;stroke-width:0.177892"
       aria-label="M" />
    <text
       xml:space="preserve"
       style="font-style:normal;font-variant:normal;font-weight:normal;font-stretch:normal;font-size:9.80653px;font-family:Deltha;-inkscape-font-specification:'Deltha, Normal';font-variant-ligatures:normal;font-variant-caps:normal;font-variant-numeric:normal;font-variant-east-asian:normal;text-align:start;writing-mode:lr-tb;direction:ltr;text-anchor:start;fill:#00ffcc;stroke-width:0.051;stroke-dasharray:none"
       x="8.3101311"
       y="20.873669"
       id="text129"
       transform="scale(0.95466332,1.0474897)"><tspan
         id="tspan129"
         x="8.3101311"
         y="20.873669"
         style="fill:#00ffcc;stroke-width:0.051;stroke-dasharray:none">&gt;_</tspan></text>
    <text
       xml:space="preserve"
       style="font-style:normal;font-variant:normal;font-weight:normal;font-stretch:normal;font-size:4.1581px;font-family:Deltha;-inkscape-font-specification:'Deltha, Normal';font-variant-ligatures:normal;font-variant-caps:normal;font-variant-numeric:normal;font-variant-east-asian:normal;text-align:start;writing-mode:lr-tb;direction:ltr;text-anchor:start;fill:#ffffff;stroke-width:0.0974553"
       x="49.092983"
       y="22.7836"
       id="text130"><tspan
         id="tspan130"
         x="49.092983"
         y="22.7836"
         style="fill:#ffffff;stroke-width:0.0974553">DIGITAL</tspan></text>
  </g>
</svg>
